<svg width="78" height="59" viewBox="0 0 78 59" fill="none" xmlns="http://www.w3.org/2000/svg">
<rect x="0.342896" width="77.5094" height="58.5857" rx="11.2929" fill="#FFAF74"/>
<path fill-rule="evenodd" clip-rule="evenodd" d="M45.3463 11.7383C45.9402 11.1444 46.9031 11.1444 47.497 11.7383L54.8211 19.0624C55.415 19.6563 55.415 20.6192 54.8211 21.2131L47.497 28.5372C46.9031 29.1311 45.9402 29.1311 45.3463 28.5372C44.7524 27.9433 44.7524 26.9804 45.3463 26.3865L50.0743 21.6585H24.4493C23.6095 21.6585 22.9286 20.9776 22.9286 20.1377C22.9286 19.2978 23.6095 18.617 24.4493 18.617H50.0743L45.3463 13.8889C44.7524 13.2951 44.7524 12.3322 45.3463 11.7383ZM32.8488 30.0485C33.4427 30.6424 33.4427 31.6053 32.8488 32.1992L28.1208 36.9272H53.7458C54.5857 36.9272 55.2665 37.6081 55.2665 38.448C55.2665 39.2879 54.5857 39.9687 53.7458 39.9687H28.1208L32.8488 44.6967C33.4427 45.2906 33.4427 46.2535 32.8488 46.8474C32.2549 47.4413 31.292 47.4413 30.6981 46.8474L23.374 39.5233C22.7801 38.9294 22.7801 37.9665 23.374 37.3726L30.6981 30.0485C31.292 29.4546 32.2549 29.4546 32.8488 30.0485Z" fill="#171A1E"/>
</svg>
