<svg width="83" height="59" viewBox="0 0 83 59" fill="none" xmlns="http://www.w3.org/2000/svg">
<rect x="0.852295" width="81.1715" height="58.5857" rx="11.2929" fill="#96BBFF"/>
<path fill-rule="evenodd" clip-rule="evenodd" d="M28.6209 14.3344C28.053 14.3344 27.5084 14.56 27.1068 14.9615C26.7052 15.3631 26.4796 15.9078 26.4796 16.4757V20.1377C26.4796 20.9776 25.7988 21.6585 24.9589 21.6585C24.119 21.6585 23.4381 20.9776 23.4381 20.1377V16.4757C23.4381 15.1011 23.9842 13.7828 24.9561 12.8109C25.9281 11.8389 27.2464 11.2928 28.6209 11.2928H32.283C33.1229 11.2928 33.8037 11.9737 33.8037 12.8136C33.8037 13.6535 33.1229 14.3344 32.283 14.3344H28.6209ZM49.0725 12.8136C49.0725 11.9737 49.7534 11.2928 50.5932 11.2928H54.2553C55.6299 11.2928 56.9481 11.8389 57.9201 12.8109C58.8921 13.7828 59.4381 15.1011 59.4381 16.4757V20.1377C59.4381 20.9776 58.7572 21.6585 57.9174 21.6585C57.0775 21.6585 56.3966 20.9776 56.3966 20.1377V16.4757C56.3966 15.9078 56.171 15.3631 55.7694 14.9615C55.3678 14.56 54.8232 14.3344 54.2553 14.3344H50.5932C49.7534 14.3344 49.0725 13.6535 49.0725 12.8136ZM41.4381 25.3205C39.2443 25.3205 37.4658 27.099 37.4658 29.2928C37.4658 31.4867 39.2443 33.2652 41.4381 33.2652C42.4097 33.2652 43.2998 32.9163 43.9901 32.3371C44.0506 32.2395 44.1232 32.1474 44.2079 32.0627C44.2926 31.978 44.3848 31.9054 44.4824 31.8448C45.0616 31.1546 45.4104 30.2644 45.4104 29.2928C45.4104 27.099 43.632 25.3205 41.4381 25.3205ZM47.3556 33.0597C48.0497 31.9716 48.452 30.6792 48.452 29.2928C48.452 25.4192 45.3117 22.279 41.4381 22.279C37.5645 22.279 34.4243 25.4192 34.4243 29.2928C34.4243 33.1665 37.5645 36.3067 41.4381 36.3067C42.8244 36.3067 44.1168 35.9045 45.205 35.2104L47.6869 37.6923C48.2808 38.2862 49.2437 38.2862 49.8376 37.6923C50.4315 37.0984 50.4315 36.1355 49.8376 35.5416L47.3556 33.0597ZM24.9589 36.9272C25.7988 36.9272 26.4796 37.6081 26.4796 38.448V42.11C26.4796 42.6779 26.7052 43.2226 27.1068 43.6242C27.5084 44.0257 28.053 44.2513 28.6209 44.2513H32.283C33.1229 44.2513 33.8037 44.9322 33.8037 45.7721C33.8037 46.612 33.1229 47.2928 32.283 47.2928H28.6209C27.2464 47.2928 25.9281 46.7468 24.9561 45.7748C23.9842 44.8029 23.4381 43.4846 23.4381 42.11V38.448C23.4381 37.6081 24.119 36.9272 24.9589 36.9272ZM57.9174 36.9272C58.7572 36.9272 59.4381 37.6081 59.4381 38.448V42.11C59.4381 43.4846 58.8921 44.8029 57.9201 45.7748C56.9481 46.7468 55.6299 47.2928 54.2553 47.2928H50.5932C49.7534 47.2928 49.0725 46.612 49.0725 45.7721C49.0725 44.9322 49.7534 44.2513 50.5932 44.2513H54.2553C54.8232 44.2513 55.3678 44.0257 55.7694 43.6242C56.171 43.2226 56.3966 42.6779 56.3966 42.11V38.448C56.3966 37.6081 57.0775 36.9272 57.9174 36.9272Z" fill="#171A1E"/>
</svg>
