<svg width="82" height="59" viewBox="0 0 82 59" fill="none" xmlns="http://www.w3.org/2000/svg">
<rect width="81.1715" height="58.5857" rx="11.2929" fill="#1DE698"/>
<path fill-rule="evenodd" clip-rule="evenodd" d="M35.0752 12.1572C39.0071 10.8928 43.2542 11.019 47.104 12.5147C47.8146 12.7907 48.1669 13.5906 47.8908 14.3012C47.6147 15.0118 46.8149 15.364 46.1043 15.088C42.8449 13.8217 39.2492 13.7149 35.9203 14.7854C32.5915 15.8558 29.7321 18.0385 27.8217 20.9673C25.9114 23.8961 25.0663 27.3927 25.4283 30.8706C25.7903 34.3486 27.3373 37.5962 29.8099 40.0688C32.2825 42.5413 35.5301 44.0884 39.008 44.4504C42.486 44.8124 45.9826 43.9673 48.9114 42.0569C51.8401 40.1466 54.0228 37.2871 55.0933 33.9583C56.1638 30.6295 56.0569 27.0338 54.7907 23.7744C54.5146 23.0638 54.8669 22.2639 55.5775 21.9879C56.2881 21.7118 57.0879 22.064 57.364 22.7747C58.8597 26.6245 58.9859 30.8716 57.7214 34.8035C56.457 38.7353 53.8789 42.1128 50.4196 44.3692C46.9603 46.6257 42.8302 47.6238 38.7222 47.1962C34.6143 46.7686 30.7783 44.9413 27.8578 42.0209C24.9373 39.1004 23.11 35.2644 22.6824 31.1564C22.2549 27.0484 23.253 22.9184 25.5094 19.4591C27.7659 15.9997 31.1433 13.4216 35.0752 12.1572ZM53.2309 16.6478C53.7699 17.1868 53.7699 18.0608 53.2309 18.5999L44.7778 27.0529C45.1273 27.7105 45.3254 28.4609 45.3254 29.2576C45.3254 31.8557 43.2192 33.9619 40.6211 33.9619C38.023 33.9619 35.9168 31.8557 35.9168 29.2576C35.9168 26.6595 38.023 24.5533 40.6211 24.5533C41.4177 24.5533 42.1681 24.7513 42.8257 25.1008L51.2788 16.6478C51.8178 16.1087 52.6918 16.1087 53.2309 16.6478ZM41.8211 27.7286C41.4906 27.4689 41.074 27.314 40.6211 27.314C39.5477 27.314 38.6775 28.1842 38.6775 29.2576C38.6775 30.331 39.5477 31.2012 40.6211 31.2012C41.6945 31.2012 42.5647 30.331 42.5647 29.2576C42.5647 28.8047 42.4098 28.388 42.1501 28.0576C42.0875 28.0132 42.0278 27.9629 41.9718 27.9069C41.9157 27.8508 41.8655 27.7911 41.8211 27.7286Z" fill="#171A1E"/>
</svg>
