<svg width="82" height="59" viewBox="0 0 82 59" fill="none" xmlns="http://www.w3.org/2000/svg">
<rect x="0.171387" width="81.1715" height="58.5857" rx="11.2929" fill="#FF8692"/>
<path fill-rule="evenodd" clip-rule="evenodd" d="M27.4614 14.0535C26.9459 14.0535 26.4515 14.2583 26.087 14.6228C25.7225 14.9873 25.5178 15.4817 25.5178 15.9971V22.645C25.5178 23.1605 25.7225 23.6548 26.087 24.0193C26.4515 24.3838 26.9459 24.5886 27.4614 24.5886H30.7853C31.5476 24.5886 32.1656 25.2066 32.1656 25.9689C32.1656 26.7313 31.5476 27.3493 30.7853 27.3493H27.4614C26.2137 27.3493 25.0172 26.8536 24.1349 25.9714C23.2527 25.0892 22.7571 23.8926 22.7571 22.645V15.9971C22.7571 14.7495 23.2527 13.5529 24.1349 12.6707C25.0172 11.7885 26.2137 11.2928 27.4614 11.2928H54.0528C55.3005 11.2928 56.497 11.7885 57.3792 12.6707C58.2615 13.5529 58.7571 14.7495 58.7571 15.9971V22.645C58.7571 23.8926 58.2615 25.0892 57.3792 25.9714C56.497 26.8536 55.3005 27.3493 54.0528 27.3493H50.7289C49.9665 27.3493 49.3485 26.7313 49.3485 25.9689C49.3485 25.2066 49.9665 24.5886 50.7289 24.5886H54.0528C54.5683 24.5886 55.0626 24.3838 55.4271 24.0193C55.7916 23.6548 55.9964 23.1605 55.9964 22.645V15.9971C55.9964 15.4817 55.7916 14.9873 55.4271 14.6228C55.0626 14.2583 54.5683 14.0535 54.0528 14.0535H27.4614ZM43.1847 18.1725C43.819 18.5954 43.9904 19.4524 43.5676 20.0867L38.3504 27.9125H45.743C46.252 27.9125 46.7198 28.1927 46.96 28.6415C47.2002 29.0903 47.1739 29.635 46.8915 30.0585L40.2436 40.0303C39.8208 40.6646 38.9637 40.836 38.3294 40.4132C37.6951 39.9903 37.5237 39.1333 37.9466 38.499L43.1638 30.6732H35.7712C35.2621 30.6732 34.7944 30.393 34.5542 29.9442C34.314 29.4953 34.3403 28.9507 34.6227 28.5272L41.2705 18.5554C41.6934 17.9211 42.5504 17.7497 43.1847 18.1725ZM29.4049 19.3211C29.4049 18.5587 30.0229 17.9407 30.7853 17.9407H30.8019C31.5643 17.9407 32.1823 18.5587 32.1823 19.3211C32.1823 20.0834 31.5643 20.7014 30.8019 20.7014H30.7853C30.0229 20.7014 29.4049 20.0834 29.4049 19.3211ZM24.1349 32.6143C25.0172 31.7321 26.2137 31.2364 27.4614 31.2364H30.7853C31.5476 31.2364 32.1656 31.8544 32.1656 32.6168C32.1656 33.3791 31.5476 33.9971 30.7853 33.9971H27.4614C26.9459 33.9971 26.4515 34.2019 26.087 34.5664C25.7225 34.9309 25.5178 35.4252 25.5178 35.9407V42.5886C25.5178 43.104 25.7225 43.5984 26.087 43.9629C26.4515 44.3274 26.9459 44.5322 27.4614 44.5322H54.0528C54.5683 44.5322 55.0626 44.3274 55.4271 43.9629C55.7916 43.5984 55.9964 43.104 55.9964 42.5886L55.9964 35.9407C55.9964 35.4252 55.7916 34.9309 55.4271 34.5664C55.0626 34.2019 54.5683 33.9971 54.0528 33.9971H50.7289C49.9665 33.9971 49.3485 33.3791 49.3485 32.6168C49.3485 31.8544 49.9665 31.2364 50.7289 31.2364H54.0528C55.3005 31.2364 56.497 31.7321 57.3792 32.6143C58.2615 33.4965 58.7571 34.6931 58.7571 35.9407L58.7571 42.5886C58.7571 43.8362 58.2615 45.0328 57.3792 45.915C56.497 46.7972 55.3005 47.2928 54.0528 47.2928H27.4614C26.2137 47.2928 25.0172 46.7972 24.1349 45.915C23.2527 45.0328 22.7571 43.8362 22.7571 42.5886V35.9407C22.7571 34.6931 23.2527 33.4965 24.1349 32.6143ZM29.4049 39.2646C29.4049 38.5023 30.0229 37.8843 30.7853 37.8843H30.8019C31.5643 37.8843 32.1823 38.5023 32.1823 39.2646C32.1823 40.027 31.5643 40.645 30.8019 40.645H30.7853C30.0229 40.645 29.4049 40.027 29.4049 39.2646Z" fill="#171A1E"/>
</svg>
