<svg width="148" height="40" viewBox="0 0 148 40" fill="none" xmlns="http://www.w3.org/2000/svg">
<path d="M13.1505 20.0003C13.1505 16.2174 16.2172 13.1508 20.0001 13.1508V13.1508C23.783 13.1508 26.8496 16.2174 26.8496 20.0003V20.0003C26.8496 23.7832 23.783 26.8499 20.0001 26.8499V26.8499C16.2172 26.8499 13.1505 23.7832 13.1505 20.0003V20.0003Z" fill="#171A1E"/>
<path fill-rule="evenodd" clip-rule="evenodd" d="M0 3.89071C0 1.74193 1.74193 0 3.89071 0H36.1093C38.2581 0 40 1.74193 40 3.89071V36.1093C40 38.2581 38.2581 40 36.1093 40H24.5981C22.9723 40 21.6544 38.682 21.6544 37.0562V37.0562C21.6544 35.5588 22.7928 34.3314 24.2256 33.8962C30.1841 32.0867 34.5206 26.5498 34.5206 20C34.5206 11.9805 28.0195 5.47936 20 5.47936C11.9805 5.47936 5.47936 11.9805 5.47936 20C5.47936 26.5497 9.8158 32.0866 15.7742 33.8962C17.2071 34.3313 18.3455 35.5588 18.3455 37.0562V37.0562C18.3455 38.682 17.0275 40 15.4017 40H3.89071C1.74193 40 0 38.2581 0 36.1093V3.89071Z" fill="#171A1E"/>
<path d="M54.0565 12.6835H57.885L64.6026 24.4039V12.6835H68.0318V29.3598H64.0623L57.4857 18.0152V29.3598H54.0565V12.6835Z" fill="#171A1E"/>
<path d="M82.7368 29.3598H79.6364L79.5895 27.4338C78.9083 29.031 77.5225 29.6417 75.9254 29.6417C73.2477 29.6417 71.6975 27.7862 71.6975 24.9206V16.9113H75.0798V23.7932C75.0798 25.8367 75.5495 26.9406 77.0058 26.9406C78.509 26.9406 79.3546 25.8367 79.3546 23.7932V16.9113H82.7368V29.3598Z" fill="#171A1E"/>
<path d="M94.1312 21.6323C93.9198 20.1056 92.9098 19.2836 91.6415 19.2836C89.8329 19.2836 88.7994 20.6928 88.7994 23.1356C88.7994 25.5783 89.8329 26.9876 91.6415 26.9876C92.9803 26.9876 93.9903 26.1655 94.2016 24.5213L97.7013 24.6623C97.349 27.7392 94.8828 29.6417 91.6415 29.6417C87.813 29.6417 85.3232 27.0815 85.3232 23.1356C85.3232 19.1896 87.813 16.6294 91.6415 16.6294C94.7888 16.6294 97.2785 18.4615 97.6074 21.4444L94.1312 21.6323Z" fill="#171A1E"/>
<path d="M100.277 12.6835H103.66V25.8602C103.66 26.4708 103.989 26.7997 104.576 26.7997H105.492V29.3598H103.636C101.616 29.3598 100.277 28.1385 100.277 26.0011V12.6835Z" fill="#171A1E"/>
<path d="M107.068 23.1356C107.068 19.1896 109.558 16.6294 113.363 16.6294C116.745 16.6294 119.376 18.9312 119.376 23.347L119.4 24.0281H110.592C110.709 25.9306 111.719 27.0815 113.363 27.0815C114.42 27.0815 115.383 26.4708 115.806 25.4843L119.212 25.7427C118.46 28.1385 116.182 29.6417 113.363 29.6417C109.558 29.6417 107.068 27.0815 107.068 23.1356ZM110.615 21.9142H115.947C115.735 19.9647 114.631 19.1896 113.363 19.1896C111.836 19.1896 110.826 20.2231 110.615 21.9142Z" fill="#171A1E"/>
<path d="M133.015 29.3598H129.915L129.868 27.4338C129.187 29.031 127.801 29.6417 126.204 29.6417C123.526 29.6417 121.976 27.7862 121.976 24.9206V16.9113H125.358V23.7932C125.358 25.8367 125.828 26.9406 127.284 26.9406C128.788 26.9406 129.633 25.8367 129.633 23.7932V16.9113H133.015V29.3598Z" fill="#171A1E"/>
<path d="M143.635 20.9277C143.423 19.7533 142.39 19.0252 141.286 19.0252C140.182 19.0252 139.336 19.6124 139.383 20.5284C139.407 21.4914 140.534 21.8907 141.732 22.1021C145.302 22.6658 147.134 23.6053 147.134 25.9776C147.134 28.4673 144.762 29.6417 141.685 29.6417C138.115 29.6417 135.79 28.068 135.602 25.4139L139.008 25.2495C139.243 26.4708 140.135 27.199 141.591 27.199C142.531 27.199 143.682 26.8466 143.658 25.9071C143.635 24.8032 142.39 24.6153 141.169 24.3569C137.857 23.7228 135.884 22.8772 135.884 20.5754C135.884 18.0857 137.951 16.6059 141.427 16.6059C144.504 16.6059 146.618 18.2031 147.017 20.7868L143.635 20.9277Z" fill="#171A1E"/>
</svg>
